<svg xmlns="http://www.w3.org/2000/svg" viewBox="0 0 512 512"><linearGradient id="a" gradientUnits="userSpaceOnUse" x1="0" y1="258" x2="512" y2="258" gradientTransform="matrix(1 0 0 -1 0 514)"><stop offset="0" stop-color="#80d8ff"/><stop offset="1" stop-color="#ea80fc"/></linearGradient><path d="M512 256c0 141.503-114.517 256-256 256C114.497 512 0 397.483 0 256c0-11.046 8.954-20 20-20s20 8.954 20 20c0 119.392 96.622 216 216 216 119.392 0 216-96.622 216-216 0-119.392-96.622-216-216-216-11.046 0-20-8.954-20-20s8.954-20 20-20c141.503 0 256 114.517 256 256zM160.406 61.8l25.869-10.716c10.204-4.228 15.051-15.927 10.823-26.132s-15.926-15.054-26.132-10.823l-25.869 10.716c-10.204 4.228-15.051 15.927-10.823 26.132 4.214 10.171 15.894 15.061 26.132 10.823zm-67.04 51.365l19.799-19.799c7.811-7.811 7.811-20.475 0-28.285s-20.475-7.811-28.285 0L65.081 84.88c-7.811 7.811-7.811 20.475 0 28.285 7.809 7.809 20.474 7.811 28.285 0zm-68.414 83.934c10.227 4.236 21.914-.642 26.132-10.823l10.716-25.87c4.228-10.205-.619-21.904-10.823-26.132-10.207-4.227-21.904.619-26.132 10.823l-10.716 25.869c-4.228 10.206.619 21.905 10.823 26.133zM256 156c-11.046 0-20 8.954-20 20v60h-60c-11.046 0-20 8.954-20 20s8.954 20 20 20h60v60c0 11.046 8.954 20 20 20s20-8.954 20-20v-60h60c11.046 0 20-8.954 20-20s-8.954-20-20-20h-60v-60c0-11.046-8.954-20-20-20z" fill="url(#a)"/></svg>