<svg xmlns="http://www.w3.org/2000/svg" viewBox="0 0 512 512"><path d="M132.816 310.488c-37.751 0-68.463 30.713-68.463 68.464s30.712 68.463 68.463 68.463c37.751 0 68.464-30.712 68.464-68.463-.001-37.751-30.714-68.464-68.464-68.464zm0 116.927c-26.723 0-48.463-21.741-48.463-48.463 0-26.723 21.74-48.464 48.463-48.464 26.723 0 48.464 21.741 48.464 48.464 0 26.722-21.741 48.463-48.464 48.463z"/><path d="M501.992 0H50.007c-5.523 0-10 4.477-10 10v182.827c0 5.523 4.477 10 10 10s10-4.477 10-10V91.997h431.986v281.991H265.889l-.007-16.895a10 10 0 00-8.435-9.873l-15.683-2.485-7.643-18.43 9.323-12.854a10 10 0 00-1.026-12.945L211.42 269.53a10 10 0 00-12.946-1.017l-12.841 9.329-18.444-7.632-2.496-15.673a10 10 0 00-9.875-8.428h-.004l-43.822.018a10 10 0 00-9.873 8.436l-2.484 15.682-18.431 7.643-12.854-9.323a10.002 10.002 0 00-12.945 1.026l-30.976 30.997a10 10 0 00-1.017 12.946l9.328 12.841-7.63 18.445-15.674 2.496a10 10 0 00-8.428 9.879l.018 43.822a10 10 0 008.435 9.873l15.683 2.485 7.643 18.43-9.323 12.854a10 10 0 001.026 12.945l30.998 30.976a10 10 0 0012.946 1.017l12.841-9.328 18.445 7.632 2.496 15.673a10 10 0 009.875 8.428h.004l43.822-.019a10.001 10.001 0 009.873-8.435l2.485-15.683 18.431-7.643 12.854 9.323a10 10 0 0012.945-1.026l30.976-30.997a10 10 0 001.017-12.946l-9.328-12.841 7.632-18.445 15.674-2.496a10 10 0 008.428-9.879l-.005-6.927h236.094c5.523 0 10-4.477 10-10V10c-.001-5.523-4.479-10-10.001-10zM233.127 394.419a9.999 9.999 0 00-7.668 6.052l-11.913 28.79a10 10 0 001.15 9.701l7.6 10.462-18.906 18.92-10.475-7.598a10.001 10.001 0 00-9.701-1.142l-28.772 11.931a10 10 0 00-6.047 7.672l-2.025 12.78-26.748.012-2.034-12.771a10.001 10.001 0 00-6.052-7.668l-28.789-11.913a9.998 9.998 0 00-9.7 1.15l-10.462 7.6-18.92-18.907 7.597-10.475a10 10 0 001.143-9.702l-11.931-28.772a9.999 9.999 0 00-7.672-6.046l-12.781-2.025-.011-26.748 12.771-2.033a9.999 9.999 0 007.668-6.052l11.913-28.79a10 10 0 00-1.15-9.701l-7.6-10.462 18.906-18.919 10.475 7.597a10.004 10.004 0 009.702 1.143l28.772-11.931a10 10 0 006.046-7.673l2.024-12.78 26.748-.011 2.034 12.771a10.001 10.001 0 006.052 7.668l28.789 11.913a10 10 0 009.701-1.15l10.462-7.601 18.92 18.907-7.597 10.475a10 10 0 00-1.143 9.702l11.931 28.772a9.999 9.999 0 007.672 6.046l12.781 2.025.011 26.748-12.771 2.033zM491.993 71.998H60.007V19.999h431.986v51.999z"/><path d="M452.384 35.999H252.215c-5.523 0-10 4.477-10 10s4.477 10 10 10h200.169c5.523 0 10-4.477 10-10s-4.477-10-10-10zm-301.56 2.93a10.077 10.077 0 00-7.07-2.93c-2.63 0-5.21 1.07-7.07 2.93s-2.93 4.44-2.93 7.07 1.07 5.21 2.93 7.07 4.44 2.93 7.07 2.93 5.21-1.07 7.07-2.93c1.86-1.86 2.93-4.44 2.93-7.07s-1.07-5.21-2.93-7.07zm-36.749 0a10.077 10.077 0 00-7.07-2.93c-2.63 0-5.21 1.07-7.07 2.93s-2.93 4.44-2.93 7.07 1.07 5.21 2.93 7.07 4.44 2.93 7.07 2.93 5.21-1.07 7.07-2.93 2.93-4.44 2.93-7.07-1.07-5.21-2.93-7.07zm73.498 0a10.077 10.077 0 00-7.07-2.93c-2.64 0-5.21 1.07-7.07 2.93a10.033 10.033 0 00-2.93 7.07c0 2.63 1.06 5.21 2.93 7.07 1.86 1.86 4.43 2.93 7.07 2.93 2.63 0 5.21-1.07 7.07-2.93 1.86-1.86 2.93-4.44 2.93-7.07s-1.07-5.21-2.93-7.07zM57.076 227.922a10.076 10.076 0 00-7.07-2.93c-2.63 0-5.21 1.07-7.07 2.93s-2.93 4.44-2.93 7.07 1.07 5.21 2.93 7.07 4.44 2.93 7.07 2.93 5.211-1.07 7.07-2.93c1.86-1.86 2.93-4.44 2.93-7.07s-1.07-5.21-2.93-7.07zm261.705-59.907H107.005c-5.523 0-10 4.477-10 10s4.477 10 10 10h211.776c5.523 0 10-4.477 10-10s-4.477-10-10-10zm128.372 0h-64.186c-5.523 0-10 4.477-10 10s4.477 10 10 10h64.186c5.523 0 10-4.477 10-10s-4.477-10-10-10zm-52.647-43.998h-287.5c-5.523 0-10 4.477-10 10s4.477 10 10 10h287.5c5.523 0 10-4.477 10-10s-4.477-10-10-10zm60.557 2.929a10.076 10.076 0 00-7.07-2.93c-2.63 0-5.21 1.07-7.07 2.93a10.076 10.076 0 00-2.93 7.07c0 2.63 1.07 5.21 2.93 7.07 1.86 1.86 4.44 2.93 7.07 2.93s5.211-1.07 7.07-2.93c1.86-1.86 2.93-4.44 2.93-7.07s-1.07-5.21-2.93-7.07zm-196.648 85.068h-151.41c-5.523 0-10 4.477-10 10s4.477 10 10 10h151.41c5.523 0 10-4.477 10-10s-4.477-10-10-10zm67.432 2.929a10.039 10.039 0 00-7.07-2.93c-2.63 0-5.21 1.07-7.07 2.93s-2.93 4.44-2.93 7.07c0 2.64 1.07 5.21 2.93 7.07s4.44 2.93 7.07 2.93c2.64 0 5.21-1.07 7.07-2.93 1.87-1.86 2.93-4.44 2.93-7.07s-1.06-5.21-2.93-7.07zm64.189 0a10.058 10.058 0 00-7.07-2.93c-2.63 0-5.21 1.07-7.07 2.93a10.076 10.076 0 00-2.93 7.07c0 2.64 1.07 5.21 2.93 7.07 1.86 1.86 4.44 2.93 7.07 2.93s5.209-1.07 7.07-2.93c1.86-1.86 2.93-4.44 2.93-7.07s-1.07-5.21-2.93-7.07zm64.188 0a10.076 10.076 0 00-7.07-2.93c-2.63 0-5.21 1.07-7.07 2.93a10.076 10.076 0 00-2.93 7.07c0 2.63 1.07 5.21 2.93 7.07 1.86 1.86 4.44 2.93 7.07 2.93s5.209-1.07 7.07-2.93c1.86-1.86 2.93-4.44 2.93-7.07s-1.07-5.21-2.93-7.07zm-23.672 115.046h-74.056c-5.523 0-10 4.477-10 10s4.477 10 10 10h74.055c5.523 0 10-4.477 10-10s-4.476-10-9.999-10zm0-43.999h-52.946c-5.523 0-10 4.477-10 10s4.477 10 10 10h52.946c5.523 0 10-4.477 10-10s-4.477-10-10-10z"/></svg>