<svg xmlns="http://www.w3.org/2000/svg" viewBox="0 0 512.001 512.001"><path d="M308.858 154.87l-17.243-4.296-8.552-20.637 9.15-15.221a9.963 9.963 0 00-1.494-12.177L264.16 75.981a9.961 9.961 0 00-12.178-1.494l-15.22 9.15-20.637-8.552-4.295-17.242a9.964 9.964 0 00-9.668-7.555h-37.551a9.963 9.963 0 00-9.668 7.555l-4.295 17.242-20.637 8.552-15.22-9.15a9.964 9.964 0 00-12.178 1.494L76.055 102.54a9.962 9.962 0 00-1.494 12.177l9.15 15.221-8.552 20.637-17.243 4.296a9.964 9.964 0 00-7.555 9.668v37.551a9.964 9.964 0 007.555 9.668l17.243 4.296 8.552 20.637-9.15 15.22a9.964 9.964 0 001.494 12.178l26.558 26.558a9.964 9.964 0 0012.177 1.494l15.221-9.15 20.637 8.552 4.295 17.243a9.964 9.964 0 009.668 7.555h37.551a9.963 9.963 0 009.668-7.555l4.295-17.243 20.637-8.552 15.221 9.15a9.966 9.966 0 0012.177-1.494l26.558-26.558a9.963 9.963 0 001.494-12.178l-9.15-15.22 8.552-20.637 17.242-4.297a9.964 9.964 0 007.555-9.668v-37.551a9.96 9.96 0 00-7.553-9.668zm-12.369 39.434l-14.563 3.627a9.966 9.966 0 00-6.796 5.853l-12.398 29.917a9.973 9.973 0 00.664 8.948l7.727 12.853-15.548 15.548-12.854-7.727a9.96 9.96 0 00-8.946-.664l-29.917 12.398a9.964 9.964 0 00-5.853 6.796l-3.627 14.561h-21.981l-3.627-14.561a9.966 9.966 0 00-5.853-6.796L133 262.659a9.968 9.968 0 00-8.946.664L111.2 271.05l-15.548-15.548 7.727-12.853a9.961 9.961 0 00.664-8.947l-12.398-29.917a9.961 9.961 0 00-6.796-5.853l-14.561-3.627v-21.981l14.561-3.627a9.966 9.966 0 006.796-5.853l12.398-29.917a9.968 9.968 0 00-.664-8.946l-7.727-12.854L111.2 95.578l12.854 7.727a9.961 9.961 0 008.947.664l29.917-12.398a9.964 9.964 0 005.853-6.796l3.627-14.56h21.981l3.627 14.56a9.966 9.966 0 005.853 6.796l29.917 12.398a9.97 9.97 0 008.947-.664l12.854-7.727 15.548 15.548-7.727 12.854a9.96 9.96 0 00-.664 8.946l12.398 29.917a9.961 9.961 0 006.796 5.853l14.561 3.627v21.981z"/><path d="M183.387 113.574c-5.502 0-9.963 4.46-9.963 9.963s4.46 9.963 9.963 9.963c27.467 0 49.813 22.346 49.813 49.813s-22.346 49.813-49.813 49.813-49.813-22.346-49.813-49.813c0-5.085.761-10.096 2.263-14.895 1.643-5.251-1.282-10.839-6.534-12.483-5.252-1.644-10.839 1.282-12.483 6.534a69.741 69.741 0 00-3.171 20.844c0 38.454 31.285 69.739 69.739 69.739s69.739-31.285 69.739-69.739-31.286-69.739-69.74-69.739z"/><path d="M157.312 128.63c-3.142-4.517-9.352-5.633-13.867-2.49-.079.055-.189.134-.266.19-4.424 3.271-5.361 9.508-2.09 13.934a9.943 9.943 0 008.019 4.042 9.913 9.913 0 005.783-1.856c4.459-3.157 5.547-9.326 2.421-13.82zm199.425 44.719c-5.502 0-9.963 4.461-9.963 9.964l-.001.708c-.021 5.502 4.421 9.981 9.924 10.001h.04c5.483 0 9.941-4.435 9.962-9.924l.001-.787c0-5.501-4.461-9.962-9.963-9.962z"/><path d="M500.104 442.296L381.91 324.101c-3.595-3.595-9.248-3.861-13.158-.813l-35.005-35.005a182.57 182.57 0 0027.022-58.55c1.39-5.324-1.8-10.767-7.123-12.155-5.325-1.392-10.766 1.8-12.155 7.123-18.75 71.832-83.763 121.999-158.103 121.999C93.296 346.7 20 273.405 20 183.312S93.294 19.925 183.387 19.925c73.762 0 138.647 49.682 157.789 120.816 1.431 5.314 6.897 8.46 12.209 7.032 5.313-1.43 8.461-6.896 7.032-12.209C338.939 55.746 266.142 0 183.387 0 82.308 0 .074 82.234.074 183.313s82.234 183.313 183.313 183.313c38.867 0 75.459-12.229 105.588-33.443l34.889 34.889c-3.735 3.901-3.692 10.089.146 13.928l47.495 47.495h-28.716c-5.502 0-9.963 4.46-9.963 9.963v50.788h-23.91v-101.62c0-5.502-4.46-9.963-9.963-9.963h-63.761c-5.502 0-9.963 4.46-9.963 9.963v101.619h-23.91V430.47c0-5.502-4.46-9.963-9.963-9.963h-63.761c-5.502 0-9.963 4.46-9.963 9.963v59.776h-23.91V368.064c0-5.502-4.46-9.963-9.963-9.963h-63.76c-5.502 0-9.963 4.46-9.963 9.963v122.181c-5.502 0-9.963 4.46-9.963 9.963s4.46 9.963 9.963 9.963h418.432c5.502 0 9.963-4.46 9.963-9.963a9.906 9.906 0 00-1.575-5.362l5.349 5.349c7.618 7.617 17.783 11.806 28.646 11.806h.203c10.902-.053 21.145-4.32 28.84-12.015 15.962-15.964 16.056-41.843.21-57.69zm-426.306 47.95H29.962V378.027h43.836v112.219zm107.596 0h-43.836v-49.813h43.836v49.813zm107.597 0h-43.836V398.59h43.836v91.656zm15.735-169.492a183.744 183.744 0 0016.632-16.68l33.245 33.244-16.657 16.657-33.22-33.221zm56.942 70.725l-16.523-16.523 29.72-29.72 16.523 16.523-29.72 29.72zm34.921 98.766h-43.837v-40.824h37.858c.264 0 .523-.019.782-.04l5.197 5.197v35.667zm31.879.001h-11.955v-15.742l17.317 17.317a9.897 9.897 0 00-5.362-1.575zm57.335-4.35c-3.957 3.958-9.23 6.152-14.845 6.179h-.105c-5.54 0-10.707-2.117-14.558-5.97l-80.537-80.537 29.72-29.72 80.536 80.536c8.078 8.079 7.984 21.318-.211 29.512z"/></svg>