<svg xmlns="http://www.w3.org/2000/svg" viewBox="0 0 512 512"><path d="M509.07 93.915l-91-90.987A9.998 9.998 0 00411 0H142c-5.522 0-10 4.477-10 10v64.315c-36.02 4.933-67.323 26.005-88.253 44.043-13.606 11.727-24.13 23.218-30.563 30.793C0 164.677 0 167.184 0 169.838c0 2.783 0 4.98 13.194 20.47 6.476 7.602 17.03 19.115 30.541 30.797 23.918 20.679 61.335 45.329 103.765 45.329 42.488 0 79.872-24.534 103.753-45.115 13.606-11.728 24.13-23.219 30.563-30.793C295 175 295 172.492 295 169.838c0-2.783 0-4.981-13.194-20.47-6.476-7.602-17.03-19.115-30.541-30.797C228.196 98.627 192.569 74.996 152 73.342V20h249v81c0 5.523 4.478 10 10 10h81v290.114h-16.39V272.333c0-5.522-4.478-10-10-10s-10 4.478-10 10v128.781h-30V250.958c0-.74-.086-1.459-.239-2.153l30.239-30.239V230.5c0 5.523 4.478 10 10 10s10-4.477 10-10v-36.076c0-5.523-4.478-10-10-10h-36.076c-5.522 0-10 4.477-10 10s4.478 10 10 10h11.933l-77.829 77.829-33.443-33.443a10.003 10.003 0 00-14.142 0l-74.974 74.973c-3.905 3.905-3.905 10.237 0 14.143a9.972 9.972 0 007.071 2.929 9.972 9.972 0 007.071-2.929l.389-.389v63.578h-7.277c-5.522 0-10 4.478-10 10s4.478 10 10 10H492V492H152v-30.063c0-5.522-4.478-10-10-10s-10 4.478-10 10V502c0 5.522 4.478 10 10 10h360c5.522 0 10-4.478 10-10V100.987a10 10 0 00-2.93-7.072zm-273.367 37.669c17.897 15.061 31.036 30.528 37.084 38.332-5.887 7.675-18.984 23.234-37.324 38.573-20.697 17.311-52.759 37.945-87.963 37.945-35.243 0-67.418-20.851-88.203-38.343-17.896-15.06-31.035-30.527-37.083-38.331 5.886-7.675 18.984-23.234 37.323-38.573 20.697-17.311 52.759-37.945 87.963-37.945 35.243 0 67.418 20.851 88.203 38.342zM421 91V34.14L477.869 91H421zM305.61 401.114h-30v-83.578l30-30v113.578zm50 0h-30V272.509l30 30.001v98.604zm50 0h-30V298.566l30-30v132.548z"/><path d="M147.52 112.848c-31.413 0-56.969 25.557-56.969 56.97s25.556 56.97 56.969 56.97 56.97-25.557 56.97-56.97-25.557-56.97-56.97-56.97zm0 93.94c-20.385 0-36.969-16.584-36.969-36.97s16.584-36.97 36.969-36.97 36.97 16.584 36.97 36.97-16.585 36.97-36.97 36.97z"/><path d="M154.569 162.77c-1.859-1.86-4.439-2.93-7.069-2.93s-5.21 1.07-7.07 2.93a10.058 10.058 0 00-2.93 7.07c0 2.63 1.069 5.21 2.93 7.07a10.056 10.056 0 007.07 2.93c2.63 0 5.21-1.07 7.069-2.93 1.86-1.87 2.931-4.44 2.931-7.07s-1.07-5.21-2.931-7.07zm-28.245 194.344H13.873c-5.522 0-10 4.478-10 10s4.478 10 10 10h112.451c5.522 0 10-4.478 10-10s-4.478-10-10-10zm57.106 0h-23.023c-5.522 0-10 4.478-10 10s4.478 10 10 10h23.023c5.522 0 10-4.478 10-10s-4.478-10-10-10zm-30.742-44H13.873c-5.522 0-10 4.478-10 10s4.478 10 10 10h138.815c5.522 0 10-4.478 10-10s-4.477-10-10-10zm36.282 2.927a10.064 10.064 0 00-7.07-2.92c-2.64 0-5.21 1.06-7.069 2.92a10.092 10.092 0 00-2.931 7.069c0 2.631 1.07 5.21 2.931 7.07a10.029 10.029 0 007.069 2.93 10.04 10.04 0 007.07-2.93 10.074 10.074 0 002.93-7.07c0-2.63-1.069-5.199-2.93-7.069zm-94.699 85.073H13.873c-5.522 0-10 4.478-10 10s4.478 10 10 10H94.27c5.522 0 10-4.478 10-10s-4.477-10-9.999-10zm39.118 2.926a10.057 10.057 0 00-7.07-2.931c-2.63 0-5.21 1.07-7.069 2.931a10.092 10.092 0 00-2.931 7.069c0 2.641 1.07 5.21 2.931 7.07a10.029 10.029 0 007.069 2.93c2.641 0 5.211-1.06 7.07-2.93a10.027 10.027 0 002.93-7.07c0-2.63-1.06-5.199-2.93-7.069zm34.09 0c-1.87-1.86-4.439-2.931-7.069-2.931s-5.21 1.071-7.07 2.931a10.048 10.048 0 00-2.93 7.069c0 2.631 1.06 5.21 2.93 7.08 1.86 1.86 4.43 2.92 7.07 2.92 2.63 0 5.21-1.06 7.069-2.92a10.098 10.098 0 002.931-7.08c0-2.63-1.07-5.21-2.931-7.069zm34.08 0a10.073 10.073 0 00-7.069-2.931 10.07 10.07 0 00-7.07 2.931 10.072 10.072 0 00-2.93 7.069c0 2.641 1.069 5.21 2.93 7.07a10.031 10.031 0 007.07 2.93c2.63 0 5.21-1.06 7.069-2.93a10.059 10.059 0 002.931-7.07c0-2.63-1.07-5.21-2.931-7.069zM357.625 53.19H285c-5.522 0-10 4.477-10 10s4.478 10 10 10h72.625c5.522 0 10-4.477 10-10s-4.478-10-10-10zm-19.828 42.549H285c-5.522 0-10 4.477-10 10s4.478 10 10 10h52.797c5.522 0 10-4.477 10-10s-4.478-10-10-10z"/></svg>