<?xml version="1.0" encoding="iso-8859-1"?>
<!-- Generator: Adobe Illustrator 19.0.0, SVG Export Plug-In . SVG Version: 6.00 Build 0)  -->
<svg version="1.1" id="Capa_1" xmlns="http://www.w3.org/2000/svg" xmlns:xlink="http://www.w3.org/1999/xlink" x="0px" y="0px"
	 viewBox="0 0 512 512" style="enable-background:new 0 0 512 512;" xml:space="preserve">
<g>
	<g>
		<path d="M132.816,310.488c-37.751,0-68.463,30.713-68.463,68.464c0,37.751,30.712,68.463,68.463,68.463
			c37.751,0,68.464-30.712,68.464-68.463C201.279,341.201,170.566,310.488,132.816,310.488z M132.816,427.415
			c-26.723,0-48.463-21.741-48.463-48.463c0-26.723,21.74-48.464,48.463-48.464c26.723,0,48.464,21.741,48.464,48.464
			C181.28,405.674,159.539,427.415,132.816,427.415z"/>
	</g>
</g>
<g>
	<g>
		<path d="M501.992,0H50.007c-5.523,0-10,4.477-10,10v182.827c0,5.523,4.477,10,10,10s10-4.477,10-10V91.997h431.986v281.991
			H265.889l-0.007-16.895c-0.002-4.917-3.579-9.104-8.435-9.873l-15.683-2.485l-7.643-18.43l9.323-12.854
			c2.887-3.98,2.452-9.469-1.026-12.945L211.42,269.53c-3.479-3.476-8.968-3.907-12.946-1.017l-12.841,9.329l-18.444-7.632
			l-2.496-15.673c-0.773-4.855-4.959-8.428-9.875-8.428c-0.001,0-0.003,0-0.004,0l-43.822,0.018
			c-4.917,0.002-9.104,3.579-9.873,8.436l-2.484,15.682l-18.431,7.643l-12.854-9.323c-3.98-2.886-9.469-2.452-12.945,1.026
			l-30.976,30.997c-3.476,3.479-3.907,8.968-1.017,12.946l9.328,12.841L24.11,344.82l-15.674,2.496
			c-4.856,0.773-8.43,4.962-8.428,9.879l0.018,43.822c0.002,4.917,3.579,9.104,8.435,9.873l15.683,2.485l7.643,18.43l-9.323,12.854
			c-2.887,3.98-2.452,9.469,1.026,12.945l30.998,30.976c3.479,3.476,8.967,3.907,12.946,1.017l12.841-9.328l18.445,7.632
			l2.496,15.673c0.773,4.855,4.959,8.428,9.875,8.428c0.001,0,0.003,0,0.004,0l43.822-0.019c4.917-0.002,9.103-3.579,9.873-8.435
			l2.485-15.683l18.431-7.643l12.854,9.323c3.98,2.887,9.469,2.453,12.945-1.026l30.976-30.997
			c3.476-3.479,3.907-8.968,1.017-12.946l-9.328-12.841l7.632-18.445l15.674-2.496c4.856-0.773,8.43-4.962,8.428-9.879l-0.005-6.927
			h236.094c5.523,0,10-4.477,10-10V10C511.992,4.477,507.514,0,501.992,0z M233.127,394.419c-3.435,0.547-6.338,2.838-7.668,6.052
			l-11.913,28.79c-1.33,3.213-0.894,6.887,1.15,9.701l7.6,10.462l-18.906,18.92l-10.475-7.598c-2.814-2.041-6.489-2.474-9.701-1.142
			l-28.772,11.931c-3.213,1.332-5.502,4.237-6.047,7.672l-2.025,12.78l-26.748,0.012l-2.034-12.771
			c-0.547-3.435-2.839-6.338-6.052-7.668l-28.789-11.913c-1.231-0.509-2.53-0.76-3.822-0.76c-2.08,0-4.143,0.649-5.878,1.91
			l-10.462,7.6l-18.92-18.907l7.597-10.475c2.042-2.815,2.475-6.489,1.143-9.702l-11.931-28.772
			c-1.332-3.212-4.237-5.502-7.672-6.046l-12.781-2.025l-0.011-26.748l12.771-2.033c3.435-0.547,6.338-2.838,7.668-6.052
			l11.913-28.79c1.33-3.213,0.894-6.887-1.15-9.701l-7.6-10.462l18.906-18.919l10.475,7.597c2.816,2.042,6.49,2.474,9.702,1.143
			l28.772-11.931c3.212-1.332,5.502-4.238,6.046-7.673l2.024-12.78l26.748-0.011l2.034,12.771c0.547,3.435,2.839,6.338,6.052,7.668
			l28.789,11.913c3.213,1.329,6.887,0.895,9.701-1.15l10.462-7.601l18.92,18.907l-7.597,10.475
			c-2.042,2.815-2.475,6.489-1.143,9.702l11.931,28.772c1.332,3.212,4.237,5.502,7.672,6.046l12.781,2.025l0.011,26.748
			L233.127,394.419z M491.993,71.998H60.007V19.999h431.986V71.998z"/>
	</g>
</g>
<g>
	<g>
		<path d="M452.384,35.999H252.215c-5.523,0-10,4.477-10,10s4.477,10,10,10h200.169c5.523,0,10-4.477,10-10
			S457.907,35.999,452.384,35.999z"/>
	</g>
</g>
<g>
	<g>
		<path d="M150.824,38.929c-1.86-1.86-4.441-2.93-7.07-2.93c-2.63,0-5.21,1.07-7.07,2.93s-2.93,4.44-2.93,7.07
			c0,2.63,1.07,5.21,2.93,7.07s4.44,2.93,7.07,2.93c2.63,0,5.21-1.07,7.07-2.93c1.86-1.86,2.93-4.44,2.93-7.07
			C153.754,43.369,152.684,40.789,150.824,38.929z"/>
	</g>
</g>
<g>
	<g>
		<path d="M114.075,38.929c-1.86-1.86-4.441-2.93-7.07-2.93c-2.63,0-5.21,1.07-7.07,2.93s-2.93,4.44-2.93,7.07
			c0,2.63,1.07,5.21,2.93,7.07s4.44,2.93,7.07,2.93c2.63,0,5.21-1.07,7.07-2.93s2.93-4.44,2.93-7.07
			C117.005,43.369,115.935,40.789,114.075,38.929z"/>
	</g>
</g>
<g>
	<g>
		<path d="M187.573,38.929c-1.86-1.86-4.441-2.93-7.07-2.93c-2.64,0-5.21,1.07-7.07,2.93c-1.87,1.86-2.93,4.44-2.93,7.07
			c0,2.63,1.06,5.21,2.93,7.07c1.86,1.86,4.43,2.93,7.07,2.93c2.63,0,5.21-1.07,7.07-2.93c1.86-1.86,2.93-4.44,2.93-7.07
			C190.503,43.369,189.433,40.789,187.573,38.929z"/>
	</g>
</g>
<g>
	<g>
		<path d="M57.076,227.922c-1.86-1.86-4.44-2.93-7.07-2.93c-2.63,0-5.21,1.07-7.07,2.93s-2.93,4.44-2.93,7.07s1.07,5.21,2.93,7.07
			s4.44,2.93,7.07,2.93c2.63,0,5.211-1.07,7.07-2.93c1.86-1.86,2.93-4.44,2.93-7.07S58.936,229.782,57.076,227.922z"/>
	</g>
</g>
<g>
	<g>
		<path d="M318.781,168.015H107.005c-5.523,0-10,4.477-10,10s4.477,10,10,10h211.776c5.523,0,10-4.477,10-10
			S324.304,168.015,318.781,168.015z"/>
	</g>
</g>
<g>
	<g>
		<path d="M447.153,168.015h-64.186c-5.523,0-10,4.477-10,10s4.477,10,10,10h64.186c5.523,0,10-4.477,10-10
			S452.676,168.015,447.153,168.015z"/>
	</g>
</g>
<g>
	<g>
		<path d="M394.506,124.017h-287.5c-5.523,0-10,4.477-10,10s4.477,10,10,10h287.5c5.523,0,10-4.477,10-10
			S400.029,124.017,394.506,124.017z"/>
	</g>
</g>
<g>
	<g>
		<path d="M455.063,126.946c-1.86-1.86-4.44-2.93-7.07-2.93c-2.63,0-5.21,1.07-7.07,2.93c-1.86,1.86-2.93,4.44-2.93,7.07
			c0,2.63,1.07,5.21,2.93,7.07c1.86,1.86,4.44,2.93,7.07,2.93c2.63,0,5.211-1.07,7.07-2.93c1.86-1.86,2.93-4.44,2.93-7.07
			C457.993,131.386,456.923,128.806,455.063,126.946z"/>
	</g>
</g>
<g>
	<g>
		<path d="M258.415,212.014h-151.41c-5.523,0-10,4.477-10,10s4.477,10,10,10h151.41c5.523,0,10-4.477,10-10
			S263.938,212.014,258.415,212.014z"/>
	</g>
</g>
<g>
	<g>
		<path d="M325.847,214.943c-1.849-1.86-4.43-2.93-7.07-2.93c-2.63,0-5.21,1.07-7.07,2.93s-2.93,4.44-2.93,7.07
			c0,2.64,1.07,5.21,2.93,7.07s4.44,2.93,7.07,2.93c2.64,0,5.21-1.07,7.07-2.93c1.87-1.86,2.93-4.44,2.93-7.07
			C328.777,219.383,327.717,216.803,325.847,214.943z"/>
	</g>
</g>
<g>
	<g>
		<path d="M390.036,214.943c-1.86-1.86-4.43-2.93-7.07-2.93c-2.63,0-5.21,1.07-7.07,2.93c-1.86,1.86-2.93,4.44-2.93,7.07
			c0,2.64,1.07,5.21,2.93,7.07c1.86,1.86,4.44,2.93,7.07,2.93c2.63,0,5.209-1.07,7.07-2.93c1.86-1.86,2.93-4.44,2.93-7.07
			C392.966,219.383,391.896,216.803,390.036,214.943z"/>
	</g>
</g>
<g>
	<g>
		<path d="M454.224,214.943c-1.86-1.86-4.44-2.93-7.07-2.93c-2.63,0-5.21,1.07-7.07,2.93c-1.86,1.86-2.93,4.44-2.93,7.07
			c0,2.63,1.07,5.21,2.93,7.07c1.86,1.86,4.44,2.93,7.07,2.93c2.63,0,5.209-1.07,7.07-2.93c1.86-1.86,2.93-4.44,2.93-7.07
			C457.154,219.383,456.084,216.803,454.224,214.943z"/>
	</g>
</g>
<g>
	<g>
		<path d="M430.552,329.989h-74.056c-5.523,0-10,4.477-10,10s4.477,10,10,10h74.055c5.523,0,10-4.477,10-10
			S436.075,329.989,430.552,329.989z"/>
	</g>
</g>
<g>
	<g>
		<path d="M430.552,285.99h-52.946c-5.523,0-10,4.477-10,10s4.477,10,10,10h52.946c5.523,0,10-4.477,10-10
			S436.075,285.99,430.552,285.99z"/>
	</g>
</g>
<g>
</g>
<g>
</g>
<g>
</g>
<g>
</g>
<g>
</g>
<g>
</g>
<g>
</g>
<g>
</g>
<g>
</g>
<g>
</g>
<g>
</g>
<g>
</g>
<g>
</g>
<g>
</g>
<g>
</g>
</svg>
