<?xml version="1.0" encoding="iso-8859-1"?>
<!-- Generator: Adobe Illustrator 19.0.0, SVG Export Plug-In . SVG Version: 6.00 Build 0)  -->
<svg version="1.1" id="Capa_1" xmlns="http://www.w3.org/2000/svg" xmlns:xlink="http://www.w3.org/1999/xlink" x="0px" y="0px"
	 viewBox="0 0 512.001 512.001" style="enable-background:new 0 0 512.001 512.001;" xml:space="preserve">
<g>
	<g>
		<path d="M308.858,154.87l-17.243-4.296l-8.552-20.637l9.15-15.221c2.357-3.921,1.74-8.943-1.494-12.177L264.16,75.981
			c-3.235-3.235-8.257-3.852-12.178-1.494l-15.22,9.15l-20.637-8.552l-4.295-17.242c-1.106-4.439-5.093-7.555-9.668-7.555h-37.551
			c-4.575,0-8.562,3.115-9.668,7.555l-4.295,17.242l-20.637,8.552l-15.22-9.15c-3.922-2.357-8.943-1.74-12.178,1.494L76.055,102.54
			c-3.235,3.235-3.851,8.257-1.494,12.177l9.15,15.221l-8.552,20.637l-17.243,4.296c-4.439,1.106-7.555,5.093-7.555,9.668v37.551
			c0,4.575,3.115,8.561,7.555,9.668l17.243,4.296l8.552,20.637l-9.15,15.22c-2.357,3.921-1.74,8.943,1.494,12.178l26.558,26.558
			c3.235,3.233,8.256,3.851,12.177,1.494l15.221-9.15l20.637,8.552l4.295,17.243c1.106,4.439,5.093,7.555,9.668,7.555h37.551
			c4.575,0,8.562-3.115,9.668-7.555l4.295-17.243l20.637-8.552l15.221,9.15c3.92,2.356,8.942,1.739,12.177-1.494l26.558-26.558
			c3.235-3.235,3.851-8.257,1.494-12.178l-9.15-15.22l8.552-20.637l17.242-4.297c4.439-1.106,7.555-5.093,7.555-9.668v-37.551
			C316.412,159.962,313.297,155.976,308.858,154.87z M296.489,194.304l-14.563,3.627c-3.065,0.764-5.586,2.935-6.796,5.853
			l-12.398,29.917c-1.209,2.919-0.962,6.24,0.664,8.948l7.727,12.853l-15.548,15.548l-12.854-7.727
			c-2.709-1.628-6.028-1.874-8.946-0.664l-29.917,12.398c-2.918,1.209-5.089,3.731-5.853,6.796l-3.627,14.561h-21.981l-3.627-14.561
			c-0.764-3.065-2.935-5.586-5.853-6.796l-29.917-12.398c-2.92-1.209-6.24-0.962-8.946,0.664l-12.854,7.727l-15.548-15.548
			l7.727-12.853c1.628-2.708,1.874-6.028,0.664-8.947l-12.398-29.917c-1.209-2.918-3.731-5.09-6.796-5.853l-14.561-3.627v-21.981
			l14.561-3.627c3.065-0.764,5.586-2.935,6.796-5.853l12.398-29.917c1.209-2.919,0.962-6.239-0.664-8.946l-7.727-12.854
			L111.2,95.578l12.854,7.727c2.708,1.627,6.028,1.875,8.947,0.664l29.917-12.398c2.918-1.209,5.089-3.731,5.853-6.796l3.627-14.56
			h21.981l3.627,14.56c0.764,3.065,2.935,5.586,5.853,6.796l29.917,12.398c2.92,1.209,6.239,0.962,8.947-0.664l12.854-7.727
			l15.548,15.548l-7.727,12.854c-1.628,2.708-1.874,6.027-0.664,8.946l12.398,29.917c1.209,2.918,3.731,5.09,6.796,5.853
			l14.561,3.627V194.304z"/>
	</g>
</g>
<g>
	<g>
		<path d="M183.387,113.574c-5.502,0-9.963,4.46-9.963,9.963s4.46,9.963,9.963,9.963c27.467,0,49.813,22.346,49.813,49.813
			s-22.346,49.813-49.813,49.813s-49.813-22.346-49.813-49.813c0-5.085,0.761-10.096,2.263-14.895
			c1.643-5.251-1.282-10.839-6.534-12.483c-5.252-1.644-10.839,1.282-12.483,6.534c-2.104,6.726-3.171,13.74-3.171,20.844
			c0,38.454,31.285,69.739,69.739,69.739s69.739-31.285,69.739-69.739S221.841,113.574,183.387,113.574z"/>
	</g>
</g>
<g>
	<g>
		<path d="M157.312,128.63c-3.142-4.517-9.352-5.633-13.867-2.49c-0.079,0.055-0.189,0.134-0.266,0.19
			c-4.424,3.271-5.361,9.508-2.09,13.934c1.953,2.644,4.965,4.042,8.019,4.042c2.008,0,4.032-0.604,5.783-1.856
			C159.35,139.293,160.438,133.124,157.312,128.63z"/>
	</g>
</g>
<g>
	<g>
		<path d="M356.737,173.349c-5.502,0-9.963,4.461-9.963,9.964l-0.001,0.708c-0.021,5.502,4.421,9.981,9.924,10.001
			c0.014,0,0.026,0,0.04,0c5.483,0,9.941-4.435,9.962-9.924l0.001-0.787C366.7,177.81,362.239,173.349,356.737,173.349z"/>
	</g>
</g>
<g>
	<g>
		<path d="M500.104,442.296L381.91,324.101c-3.595-3.595-9.248-3.861-13.158-0.813l-35.005-35.005
			c12.158-17.396,21.426-37.113,27.022-58.55c1.39-5.324-1.8-10.767-7.123-12.155c-5.325-1.392-10.766,1.8-12.155,7.123
			c-18.75,71.832-83.763,121.999-158.103,121.999c-90.092,0-163.388-73.295-163.388-163.388S93.294,19.925,183.387,19.925
			c73.762,0,138.647,49.682,157.789,120.816c1.431,5.314,6.897,8.46,12.209,7.032c5.313-1.43,8.461-6.896,7.032-12.209
			C338.939,55.746,266.142,0,183.387,0C82.308,0,0.074,82.234,0.074,183.313s82.234,183.313,183.313,183.313
			c38.867,0,75.459-12.229,105.588-33.443l34.889,34.889c-3.735,3.901-3.692,10.089,0.146,13.928l47.495,47.495h-28.716
			c-5.502,0-9.963,4.46-9.963,9.963v50.788h-23.91V388.626c0-5.502-4.46-9.963-9.963-9.963h-63.761c-5.502,0-9.963,4.46-9.963,9.963
			v101.619h-23.91V430.47c0-5.502-4.46-9.963-9.963-9.963h-63.761c-5.502,0-9.963,4.46-9.963,9.963v59.776h-23.91V368.064
			c0-5.502-4.46-9.963-9.963-9.963H19.999c-5.502,0-9.963,4.46-9.963,9.963v122.181c-5.502,0-9.963,4.46-9.963,9.963
			s4.46,9.963,9.963,9.963h418.432c5.502,0,9.963-4.46,9.963-9.963c0-1.977-0.583-3.813-1.575-5.362l5.349,5.349
			c7.618,7.617,17.783,11.806,28.646,11.806c0.067,0,0.136,0,0.203,0c10.902-0.053,21.145-4.32,28.84-12.015
			C515.856,484.022,515.95,458.143,500.104,442.296z M73.798,490.246H29.962V378.027h43.836V490.246z M181.394,490.246h-43.836
			v-49.813h43.836V490.246z M288.991,490.246h-43.836v-91.656h43.836V490.246z M304.726,320.754
			c5.886-5.189,11.441-10.761,16.632-16.68l33.245,33.244l-16.657,16.657L304.726,320.754z M361.668,391.479l-16.523-16.523
			l29.72-29.72l16.523,16.523L361.668,391.479z M396.589,490.245h-43.837v-40.824h37.858c0.264,0,0.523-0.019,0.782-0.04
			l5.197,5.197V490.245z M428.468,490.246h-11.955v-15.742l17.317,17.317C432.281,490.828,430.445,490.246,428.468,490.246z
			 M485.803,485.896c-3.957,3.958-9.23,6.152-14.845,6.179c-0.035,0-0.07,0-0.105,0c-5.54,0-10.707-2.117-14.558-5.97
			l-80.537-80.537l29.72-29.72l80.536,80.536C494.092,464.463,493.998,477.702,485.803,485.896z"/>
	</g>
</g>
<g>
</g>
<g>
</g>
<g>
</g>
<g>
</g>
<g>
</g>
<g>
</g>
<g>
</g>
<g>
</g>
<g>
</g>
<g>
</g>
<g>
</g>
<g>
</g>
<g>
</g>
<g>
</g>
<g>
</g>
</svg>
